<?xml version="1.0" encoding="utf-8"?><svg version="1.1" id="Layer_1" xmlns="http://www.w3.org/2000/svg" xmlns:xlink="http://www.w3.org/1999/xlink" x="0px" y="0px" viewBox="0 0 71.69 122.88" style="enable-background:new 0 0 71.69 122.88" xml:space="preserve"><style type="text/css">.st0{fill-rule:evenodd;clip-rule:evenodd;}</style><g><path class="st0" d="M1.19,0.02h25.91l23.34,42.45c0.5,0.9,1.23,1.61,2.06,2.06H17.66L1.19,0V0.02L1.19,0.02z M35.85,51.19 c19.8,0,35.85,16.05,35.85,35.85s-16.05,35.85-35.85,35.85C16.05,122.88,0,106.83,0,87.03S16.05,51.19,35.85,51.19L35.85,51.19z M35.85,66.34l5.99,14.62l15.77,1.19L45.54,92.39l3.75,15.34L35.85,99.4l-13.44,8.33l3.75-15.34L14.08,82.14l15.77-1.19 L35.85,66.34L35.85,66.34L35.85,66.34z M39.03,0.02h30.32L57.15,33L39.03,0.02L39.03,0.02z"/></g></svg>