<?xml version="1.0" encoding="utf-8"?><svg version="1.1" id="Layer_1" xmlns="http://www.w3.org/2000/svg" xmlns:xlink="http://www.w3.org/1999/xlink" x="0px" y="0px" viewBox="0 0 122.79 122.88" style="enable-background:new 0 0 122.79 122.88" xml:space="preserve"><g><path d="M3.15,107.93c-2.1-2.1-3.15-4.86-3.15-7.61s1.05-5.51,3.15-7.61c2.1-2.1,4.86-3.15,7.61-3.15s5.51,1.05,7.61,3.15 c0.08,0.08,0.18,0.18,0.27,0.28L34.36,77.1c-0.13-0.14-0.27-0.28-0.4-0.44c-0.26-0.31-0.52-0.65-0.78-1.03l-0.02-0.03 c-1.48-2.21-1.68-4.37-1.24-6.46c0.42-2.05,1.44-4,2.44-5.9l0.02-0.03c0.2-0.38,0.4-0.76,0.62-1.21c0.2-0.41,0.41-0.81,0.62-1.2 c0.23-0.42,0.44-0.81,0.64-1.16c0.21-0.36,0.43-0.75,0.69-1.16c0.25-0.4,0.49-0.79,0.74-1.16c0.44-0.66,1.03-1.53,1.6-2.37 l0.01-0.02c2.72-4.02,5.06-7.48,6.98-12.57c0.27-0.7,0.52-1.4,0.76-2.1c0.25-0.7,0.48-1.4,0.71-2.1c0.24-0.74,0.46-1.44,0.67-2.13 c0.19-0.63,0.39-1.32,0.6-2.06c1.47-5.14,2.84-9.86,4.5-14.06c1.66-4.23,3.6-7.92,6.19-10.97c2.67-3.15,5.96-5.56,10.22-7.08 c4.24-1.51,9.43-2.15,15.95-1.76c0.77,0.05,1.52,0.11,2.26,0.19c0.74,0.08,1.48,0.19,2.2,0.31c0.72,0.12,1.43,0.26,2.12,0.42 c0.69,0.16,1.36,0.33,2,0.52c1.49,0.44,2.97,0.99,4.41,1.62c1.44,0.64,2.86,1.37,4.25,2.2c1.37,0.82,2.73,1.73,4.08,2.75 c1.34,1.02,2.65,2.12,3.93,3.33c0.07,0.07,0.14,0.14,0.21,0.2l0.04,0.04c1.19,1.27,2.28,2.57,3.29,3.9 c1.02,1.34,1.94,2.71,2.76,4.09c0.83,1.4,1.57,2.83,2.21,4.27c0.64,1.45,1.18,2.91,1.62,4.4c0.18,0.62,0.36,1.28,0.52,1.98 c0.16,0.69,0.3,1.41,0.42,2.14c0.12,0.72,0.22,1.45,0.3,2.19c0.08,0.74,0.15,1.5,0.19,2.27c0.39,6.51-0.25,11.71-1.76,15.94 c-1.52,4.26-3.93,7.55-7.08,10.22c-3.05,2.59-6.75,4.53-10.97,6.19c-4.2,1.65-8.92,3.03-14.06,4.5c-0.68,0.2-1.38,0.4-2.09,0.61 l-0.04,0.01c-0.67,0.2-1.35,0.42-2.05,0.64c-0.66,0.21-1.34,0.44-2.04,0.69c-0.69,0.24-1.41,0.5-2.16,0.78 c-2.55,0.96-4.68,2.02-6.68,3.18c-1.99,1.16-3.87,2.43-5.89,3.79l-0.15,0.1c-0.9,0.61-1.8,1.22-2.23,1.51 c-0.36,0.24-0.74,0.48-1.13,0.72c-0.4,0.25-0.8,0.48-1.19,0.71c-0.37,0.21-0.78,0.44-1.2,0.66c-0.39,0.21-0.77,0.41-1.15,0.6 c-0.19,0.09-0.41,0.21-0.66,0.34l-0.58,0.3c-1.9,0.99-3.85,2.01-5.9,2.44c-2.1,0.43-4.27,0.24-6.49-1.26 c-0.37-0.25-0.71-0.52-1.02-0.82c-0.17-0.16-0.33-0.33-0.49-0.5l-15.86,15.86c0.15,0.13,0.27,0.25,0.38,0.36 c2.1,2.1,3.15,4.86,3.15,7.61c0,2.75-1.05,5.51-3.15,7.61c-2.1,2.1-4.86,3.15-7.61,3.15c-2.75,0-5.51-1.05-7.61-3.15 c-1.25-1.25-2.13-2.73-2.64-4.31c-0.46-1.42-0.61-2.92-0.46-4.39c-1.47,0.15-2.97,0-4.39-0.46C5.89,110.06,4.4,109.18,3.15,107.93 L3.15,107.93z M38.61,65.49c-0.7,1.34-1.42,2.73-1.77,4.03c-0.33,1.23-0.33,2.4,0.35,3.42c0.44,0.66,0.9,1.04,1.39,1.28 c0.51,0.26,1.09,0.39,1.73,0.53c0.02,0,0.1,0.02,0.12,0.03c0.61,0.14,1.23,0.33,1.87,0.62c0.65,0.3,1.31,0.71,1.97,1.29h0 c0.61,0.53,1.2,1.21,1.76,2.07c0.55,0.84,1.08,1.87,1.57,3.14c0.17,0.45,0.35,0.9,0.54,1.32c0.18,0.4,0.36,0.77,0.56,1.11 c0.16,0.27,0.34,0.52,0.53,0.74c0.18,0.21,0.39,0.39,0.61,0.54c1.01,0.68,2.19,0.68,3.42,0.35c1.32-0.35,2.71-1.08,4.06-1.79 l0.7-0.37c0.18-0.09,0.38-0.2,0.61-0.31c0.37-0.19,0.74-0.37,1.09-0.56c0.33-0.17,0.67-0.36,1.03-0.57c0.35-0.2,0.69-0.4,1.01-0.6 c0.33-0.2,0.67-0.42,1.04-0.67c0.7-0.46,1.13-0.75,1.44-0.96l0.92-0.62c0,0,0.01-0.01,0.02-0.01c4.28-2.9,7.96-5.38,13.55-7.49 c0.7-0.26,1.42-0.52,2.16-0.78c0.73-0.25,1.48-0.51,2.25-0.76c0.78-0.25,1.5-0.48,2.18-0.68l0.04-0.01 c0.77-0.23,1.48-0.44,2.12-0.63c4.9-1.4,9.4-2.71,13.32-4.23c3.9-1.52,7.26-3.25,9.91-5.5c2.56-2.17,4.51-4.88,5.74-8.45 c1.24-3.6,1.75-8.09,1.42-13.76c-0.04-0.67-0.1-1.34-0.17-2c-0.07-0.66-0.16-1.31-0.27-1.95c-0.1-0.61-0.22-1.21-0.36-1.81 c-0.13-0.59-0.29-1.17-0.46-1.73c-0.39-1.3-0.86-2.59-1.42-3.85c-0.56-1.26-1.2-2.5-1.92-3.72c-0.71-1.19-1.5-2.36-2.37-3.52 c-0.86-1.15-1.81-2.28-2.83-3.39c-0.1-0.07-0.19-0.15-0.28-0.24c-0.09-0.09-0.17-0.18-0.24-0.28c-1.11-1.02-2.23-1.96-3.37-2.82 c-1.15-0.87-2.33-1.66-3.53-2.37c-1.23-0.73-2.48-1.38-3.74-1.93c-1.26-0.56-2.55-1.03-3.84-1.42C92.51,6,91.94,5.85,91.36,5.72 c-0.59-0.13-1.2-0.25-1.84-0.36c-0.63-0.11-1.28-0.2-1.94-0.27c-0.66-0.07-1.33-0.13-2.01-0.17c-5.67-0.34-10.15,0.17-13.75,1.42 c-3.57,1.23-6.28,3.18-8.45,5.74c-2.25,2.66-3.99,6.01-5.5,9.92c-1.52,3.92-2.83,8.42-4.23,13.32c-0.21,0.75-0.43,1.49-0.64,2.2 c-0.2,0.68-0.43,1.39-0.67,2.15c-0.24,0.73-0.48,1.46-0.74,2.19c-0.26,0.74-0.53,1.48-0.81,2.22c-2.11,5.61-4.6,9.28-7.49,13.56 l-0.02,0.03c-0.46,0.68-0.93,1.37-1.57,2.33c-0.21,0.31-0.42,0.65-0.64,1.01c-0.21,0.35-0.42,0.7-0.62,1.04 c-0.22,0.39-0.42,0.75-0.59,1.07c-0.19,0.36-0.37,0.7-0.54,1.05c-0.19,0.38-0.43,0.83-0.66,1.28L38.61,65.49L38.61,65.49z"/></g></svg>